<svg width="24" height="24" viewBox="0 0 24 24" fill="none" xmlns="http://www.w3.org/2000/svg">
<path d="M9.47222 22H5.33395C4.44973 22 3.60173 21.6488 2.97649 21.0237C2.35125 20.3986 2 19.5507 2 18.6667V14.5C2 13.6159 2.35125 12.7681 2.97649 12.143C3.60173 11.5179 4.44973 11.1667 5.33395 11.1667H12.7162C13.1672 11.1669 13.6106 11.2835 14.0034 11.5053C14.3962 11.727 14.7251 12.0464 14.9582 12.4325L17.6396 9.48667C17.8614 9.24282 18.129 9.04507 18.4273 8.90472C18.7256 8.76436 19.0486 8.68415 19.3779 8.66867C19.7071 8.65319 20.0363 8.70275 20.3464 8.81451C20.6565 8.92627 20.9415 9.09804 21.1852 9.32C21.6715 9.76661 21.9629 10.3862 21.9967 11.0455C22.0305 11.7048 21.8041 12.351 21.3661 12.845L15.6984 19.2092C14.9158 20.0867 13.9566 20.7889 12.8836 21.2699C11.8106 21.7509 10.6481 21.9997 9.47222 22ZM5.33395 12.8333C4.89184 12.8333 4.46784 13.0089 4.15522 13.3215C3.8426 13.634 3.66698 14.058 3.66698 14.5V18.6667C3.66698 19.1087 3.8426 19.5326 4.15522 19.8452C4.46784 20.1577 4.89184 20.3333 5.33395 20.3333H9.47222C10.4123 20.333 11.3418 20.1339 12.1996 19.7494C13.0574 19.3648 13.8242 18.8033 14.4498 18.1017L20.1217 11.7367C20.269 11.5708 20.3452 11.3538 20.334 11.1323C20.3227 10.9108 20.225 10.7026 20.0617 10.5525C19.8957 10.4033 19.678 10.3246 19.4549 10.3333C19.3443 10.338 19.2358 10.3647 19.1356 10.4117C19.0354 10.4588 18.9456 10.5254 18.8715 10.6075L15.1825 14.6667C15.0205 15.1148 14.7399 15.5106 14.3705 15.8117C14.0012 16.1129 13.557 16.3082 13.0854 16.3767L8.78376 16.9917C8.56492 17.0231 8.34257 16.9662 8.16563 16.8337C7.98868 16.7012 7.87164 16.5038 7.84025 16.285C7.80886 16.0662 7.8657 15.8439 7.99825 15.667C8.1308 15.4901 8.32821 15.3731 8.54705 15.3417L12.8495 14.7275C13.0883 14.6941 13.3056 14.5714 13.4574 14.384C13.6092 14.1966 13.6842 13.9587 13.6672 13.7182C13.6503 13.4777 13.5427 13.2526 13.3662 13.0883C13.1896 12.9241 12.9573 12.8329 12.7162 12.8333H5.33395ZM11.1684 9.56167C10.7906 9.56268 10.4238 9.43447 10.129 9.19833C8.70208 8.05333 7.00093 6.33333 7.00093 4.66667C6.98047 3.98197 7.23204 3.31704 7.70063 2.8173C8.16922 2.31757 8.81668 2.02371 9.5014 2C10.1243 2.00243 10.7219 2.24651 11.1684 2.68083C11.6148 2.24651 12.2124 2.00243 12.8354 2C13.5201 2.02371 14.1675 2.31757 14.6361 2.8173C15.1047 3.31704 15.3563 3.98197 15.3358 4.66667C15.3358 6.33333 13.6347 8.05333 12.2069 9.19917C11.9122 9.43483 11.5458 9.56273 11.1684 9.56167ZM9.5014 3.66667C9.25914 3.69097 9.0361 3.80935 8.88024 3.99635C8.72437 4.18336 8.64813 4.42405 8.66791 4.66667C8.66791 5.41667 9.62725 6.65833 11.1734 7.89917C12.7095 6.65833 13.6688 5.41667 13.6688 4.66667C13.6886 4.42405 13.6124 4.18336 13.4565 3.99635C13.3006 3.80935 13.0776 3.69097 12.8354 3.66667C12.5931 3.69097 12.3701 3.80935 12.2142 3.99635C12.0583 4.18336 11.9821 4.42405 12.0019 4.66667C12.0019 4.88768 11.914 5.09964 11.7577 5.25592C11.6014 5.4122 11.3894 5.5 11.1684 5.5C10.9473 5.5 10.7353 5.4122 10.579 5.25592C10.4227 5.09964 10.3349 4.88768 10.3349 4.66667C10.3547 4.42405 10.2784 4.18336 10.1226 3.99635C9.96669 3.80935 9.74365 3.69097 9.5014 3.66667Z" fill="#030712"/>
</svg>
