<svg width="24" height="24" viewBox="0 0 24 24" fill="none" xmlns="http://www.w3.org/2000/svg">
<path d="M18.6667 11.1818H17.8333V6.27273C17.8333 5.40475 17.4821 4.57232 16.857 3.95856C16.2319 3.3448 15.3841 3 14.5 3H5.33333C4.44928 3 3.60143 3.3448 2.97631 3.95856C2.35119 4.57232 2 5.40475 2 6.27273L2 15.2727C2.00179 15.7889 2.16963 16.2914 2.47956 16.7084C2.78949 17.1254 3.22567 17.4356 3.72583 17.5947C3.68811 17.7729 3.66829 17.9544 3.66667 18.1364C3.66667 18.8958 3.97396 19.6242 4.52094 20.1613C5.06792 20.6983 5.80979 21 6.58333 21C7.35688 21 8.09875 20.6983 8.64573 20.1613C9.19271 19.6242 9.5 18.8958 9.5 18.1364C9.49869 17.9994 9.48727 17.8626 9.46583 17.7273H14.5342C14.5127 17.8626 14.5013 17.9994 14.5 18.1364C14.5 18.8958 14.8073 19.6242 15.3543 20.1613C15.9013 20.6983 16.6431 21 17.4167 21C18.1902 21 18.9321 20.6983 19.4791 20.1613C20.026 19.6242 20.3333 18.8958 20.3333 18.1364C20.3317 17.9544 20.3119 17.7729 20.2742 17.5947C20.7743 17.4356 21.2105 17.1254 21.5204 16.7084C21.8304 16.2914 21.9982 15.7889 22 15.2727V14.4545C22 13.5866 21.6488 12.7541 21.0237 12.1404C20.3986 11.5266 19.5507 11.1818 18.6667 11.1818ZM3.66667 11.1818V7.90909H5.33333V11.1818H3.66667ZM7 7.90909H8.66667V11.1818H7V7.90909ZM10.3333 7.90909H12.8333V16.0909H10.3333V7.90909ZM14.5 7.90909H16.1667V11.1818H14.5V7.90909ZM5.33333 4.63636H14.5C14.942 4.63636 15.3659 4.80877 15.6785 5.11564C15.9911 5.42252 16.1667 5.83874 16.1667 6.27273H3.66667C3.66667 5.83874 3.84226 5.42252 4.15482 5.11564C4.46738 4.80877 4.89131 4.63636 5.33333 4.63636ZM3.66667 12.8182H8.66667V16.0909H4.5C4.27899 16.0909 4.06702 16.0047 3.91074 15.8513C3.75446 15.6978 3.66667 15.4897 3.66667 15.2727V12.8182ZM7.83333 18.1364C7.83333 18.4619 7.70164 18.774 7.46722 19.0042C7.2328 19.2343 6.91485 19.3636 6.58333 19.3636C6.25181 19.3636 5.93387 19.2343 5.69945 19.0042C5.46503 18.774 5.33333 18.4619 5.33333 18.1364C5.3337 17.9965 5.35996 17.8579 5.41083 17.7273H7.75583C7.80671 17.8579 7.83297 17.9965 7.83333 18.1364ZM17.4167 19.3636C17.0851 19.3636 16.7672 19.2343 16.5328 19.0042C16.2984 18.774 16.1667 18.4619 16.1667 18.1364C16.167 17.9965 16.1933 17.8579 16.2442 17.7273H18.5892C18.64 17.8579 18.6663 17.9965 18.6667 18.1364C18.6667 18.4619 18.535 18.774 18.3005 19.0042C18.0661 19.2343 17.7482 19.3636 17.4167 19.3636ZM20.3333 15.2727C20.3333 15.4897 20.2455 15.6978 20.0893 15.8513C19.933 16.0047 19.721 16.0909 19.5 16.0909H14.5V12.8182H18.6667C19.1087 12.8182 19.5326 12.9906 19.8452 13.2975C20.1577 13.6043 20.3333 14.0206 20.3333 14.4545V15.2727Z" fill="#030712"/>
</svg>
