<svg width="24" height="24" viewBox="0 0 24 24" fill="none" xmlns="http://www.w3.org/2000/svg">
<path d="M18.6583 14.8334H2.83333C2.61232 14.8334 2.40036 14.9212 2.24408 15.0775C2.0878 15.2338 2 15.4457 2 15.6667C2 15.8877 2.0878 16.0997 2.24408 16.256C2.40036 16.4123 2.61232 16.5001 2.83333 16.5001H18.6583C19.1817 16.501 19.6979 16.3787 20.1652 16.143C20.6325 15.9074 21.0377 15.565 21.3481 15.1436C21.6585 14.7222 21.8652 14.2337 21.9517 13.7175C22.0382 13.2014 22.0019 12.6721 21.8458 12.1726C21.1089 9.7983 19.6297 7.72308 17.6257 6.252C15.6216 4.78092 13.1985 3.9916 10.7125 4.00007H2.83333C2.61232 4.00007 2.40036 4.08786 2.24408 4.24415C2.0878 4.40043 2 4.61239 2 4.8334C2 5.05441 2.0878 5.26638 2.24408 5.42266C2.40036 5.57894 2.61232 5.66673 2.83333 5.66673H5.33333V8.16673H2.83333C2.61232 8.16673 2.40036 8.25453 2.24408 8.41081C2.0878 8.56709 2 8.77905 2 9.00007C2 9.22108 2.0878 9.43304 2.24408 9.58932C2.40036 9.7456 2.61232 9.8334 2.83333 9.8334H18.8442C19.4621 10.6988 19.9386 11.6568 20.2558 12.6717C20.3345 12.9202 20.3528 13.1838 20.3094 13.4407C20.2659 13.6976 20.1618 13.9405 20.0058 14.1492C19.8514 14.3618 19.6487 14.5346 19.4145 14.6536C19.1802 14.7725 18.9211 14.8341 18.6583 14.8334ZM9.5 8.16673H7V5.66673H9.5V8.16673ZM11.1667 8.16673V5.68507C13.4478 5.78038 15.6269 6.65651 17.3392 8.16673H11.1667Z" fill="#030712"/>
<path d="M21.1667 18.9999H2.83333C2.61232 18.9999 2.40036 19.0877 2.24408 19.244C2.0878 19.4002 2 19.6122 2 19.8332C2 20.0542 2.0878 20.2662 2.24408 20.4225C2.40036 20.5788 2.61232 20.6666 2.83333 20.6666H21.1667C21.3877 20.6666 21.5996 20.5788 21.7559 20.4225C21.9122 20.2662 22 20.0542 22 19.8332C22 19.6122 21.9122 19.4002 21.7559 19.244C21.5996 19.0877 21.3877 18.9999 21.1667 18.9999Z" fill="#030712"/>
</svg>
