<svg width="24" height="24" viewBox="0 0 24 24" fill="none" xmlns="http://www.w3.org/2000/svg">
<path d="M19.5 6H4.5C3.83696 6 3.20107 6.25681 2.73223 6.71393C2.26339 7.17105 2 7.79103 2 8.4375L2 19H22V8.4375C22 7.79103 21.7366 7.17105 21.2678 6.71393C20.7989 6.25681 20.163 6 19.5 6ZM20.3333 17.375H3.66667V8.4375C3.66667 8.22201 3.75446 8.01535 3.91074 7.86298C4.06702 7.7106 4.27899 7.625 4.5 7.625H19.5C19.721 7.625 19.933 7.7106 20.0893 7.86298C20.2455 8.01535 20.3333 8.22201 20.3333 8.4375V17.375ZM12 9.25C11.3407 9.25 10.6963 9.44061 10.1481 9.79772C9.59994 10.1548 9.17269 10.6624 8.9204 11.2563C8.66811 11.8501 8.6021 12.5036 8.73072 13.134C8.85933 13.7645 9.1768 14.3436 9.64298 14.7981C10.1092 15.2526 10.7031 15.5622 11.3497 15.6876C11.9963 15.813 12.6665 15.7486 13.2756 15.5026C13.8847 15.2566 14.4053 14.8401 14.7716 14.3056C15.1378 13.7711 15.3333 13.1428 15.3333 12.5C15.3333 11.638 14.9821 10.8114 14.357 10.2019C13.7319 9.59241 12.8841 9.25 12 9.25ZM12 14.125C11.6704 14.125 11.3481 14.0297 11.074 13.8511C10.8 13.6726 10.5863 13.4188 10.4602 13.1219C10.3341 12.8249 10.301 12.4982 10.3654 12.183C10.4297 11.8678 10.5884 11.5782 10.8215 11.351C11.0546 11.1237 11.3515 10.9689 11.6748 10.9062C11.9982 10.8435 12.3333 10.8757 12.6378 10.9987C12.9423 11.1217 13.2026 11.33 13.3858 11.5972C13.5689 11.8644 13.6667 12.1786 13.6667 12.5C13.6667 12.931 13.4911 13.3443 13.1785 13.649C12.8659 13.9538 12.442 14.125 12 14.125ZM7 10.0625C7 10.2232 6.95113 10.3803 6.85956 10.5139C6.76799 10.6475 6.63784 10.7517 6.48557 10.8132C6.3333 10.8746 6.16574 10.8907 6.00409 10.8594C5.84244 10.828 5.69395 10.7507 5.57741 10.637C5.46087 10.5234 5.3815 10.3786 5.34935 10.221C5.31719 10.0634 5.33369 9.90003 5.39677 9.75157C5.45984 9.6031 5.56665 9.47621 5.70369 9.38693C5.84073 9.29765 6.00185 9.25 6.16667 9.25C6.38768 9.25 6.59964 9.3356 6.75592 9.48798C6.9122 9.64035 7 9.84701 7 10.0625ZM18.6667 10.0625C18.6667 10.2232 18.6178 10.3803 18.5262 10.5139C18.4347 10.6475 18.3045 10.7517 18.1522 10.8132C18 10.8746 17.8324 10.8907 17.6708 10.8594C17.5091 10.828 17.3606 10.7507 17.2441 10.637C17.1275 10.5234 17.0482 10.3786 17.016 10.221C16.9839 10.0634 17.0004 9.90003 17.0634 9.75157C17.1265 9.6031 17.2333 9.47621 17.3704 9.38693C17.5074 9.29765 17.6685 9.25 17.8333 9.25C18.0543 9.25 18.2663 9.3356 18.4226 9.48798C18.5789 9.64035 18.6667 9.84701 18.6667 10.0625ZM7 14.9375C7 15.0982 6.95113 15.2553 6.85956 15.3889C6.76799 15.5225 6.63784 15.6267 6.48557 15.6882C6.3333 15.7496 6.16574 15.7657 6.00409 15.7344C5.84244 15.703 5.69395 15.6257 5.57741 15.512C5.46087 15.3984 5.3815 15.2536 5.34935 15.096C5.31719 14.9384 5.33369 14.775 5.39677 14.6266C5.45984 14.4781 5.56665 14.3512 5.70369 14.2619C5.84073 14.1727 6.00185 14.125 6.16667 14.125C6.38768 14.125 6.59964 14.2106 6.75592 14.363C6.9122 14.5153 7 14.722 7 14.9375ZM18.6667 14.9375C18.6667 15.0982 18.6178 15.2553 18.5262 15.3889C18.4347 15.5225 18.3045 15.6267 18.1522 15.6882C18 15.7496 17.8324 15.7657 17.6708 15.7344C17.5091 15.703 17.3606 15.6257 17.2441 15.512C17.1275 15.3984 17.0482 15.2536 17.016 15.096C16.9839 14.9384 17.0004 14.775 17.0634 14.6266C17.1265 14.4781 17.2333 14.3512 17.3704 14.2619C17.5074 14.1727 17.6685 14.125 17.8333 14.125C18.0543 14.125 18.2663 14.2106 18.4226 14.363C18.5789 14.5153 18.6667 14.722 18.6667 14.9375Z" fill="#030712"/>
</svg>
