<svg width="24" height="24" viewBox="0 0 24 24" fill="none" xmlns="http://www.w3.org/2000/svg">
<path d="M18.625 2H6.375C5.2151 2.00139 4.10311 2.46277 3.28294 3.28294C2.46277 4.10311 2.00139 5.2151 2 6.375L2 18.625C2.00139 19.7849 2.46277 20.8969 3.28294 21.7171C4.10311 22.5372 5.2151 22.9986 6.375 23H18.625C19.7849 22.9986 20.8969 22.5372 21.7171 21.7171C22.5372 20.8969 22.9986 19.7849 23 18.625V6.375C22.9986 5.2151 22.5372 4.10311 21.7171 3.28294C20.8969 2.46277 19.7849 2.00139 18.625 2V2ZM19.5 11.625H21.25V13.375H19.5V11.625ZM19.5 9.875V8.125H21.25V9.875H19.5ZM17.75 11.625H7.25V3.75H17.75V11.625ZM5.5 13.375H3.75V11.625H5.5V13.375ZM5.5 9.875H3.75V8.125H5.5V9.875ZM3.75 15.125H5.5V16.875H3.75V15.125ZM7.25 13.375H17.75V21.25H7.25V13.375ZM19.5 15.125H21.25V16.875H19.5V15.125ZM21.25 6.375H19.5V3.911C20.01 4.09132 20.4519 4.42483 20.7652 4.86589C21.0784 5.30695 21.2478 5.83402 21.25 6.375ZM5.5 3.911V6.375H3.75C3.75224 5.83402 3.92157 5.30695 4.23483 4.86589C4.54808 4.42483 4.98996 4.09132 5.5 3.911ZM3.75 18.625H5.5V21.089C4.98996 20.9087 4.54808 20.5752 4.23483 20.1341C3.92157 19.6931 3.75224 19.166 3.75 18.625ZM19.5 21.089V18.625H21.25C21.2478 19.166 21.0784 19.6931 20.7652 20.1341C20.4519 20.5752 20.01 20.9087 19.5 21.089Z" fill="#030712"/>
</svg>
