<svg width="24" height="24" viewBox="0 0 24 24" fill="none" xmlns="http://www.w3.org/2000/svg">
<path d="M20.795 2.76919C20.4188 2.45543 19.9777 2.22895 19.5035 2.10604C19.0293 1.98313 18.5338 1.96684 18.0525 2.05836L10.3992 3.49336C9.44394 3.67237 8.58134 4.17966 7.96062 4.92745C7.33989 5.67525 7.00009 6.6165 7 7.58835V15.7967C6.49555 15.4967 5.92021 15.3368 5.33333 15.3333C4.67406 15.3333 4.0296 15.5288 3.48143 15.8951C2.93327 16.2614 2.50603 16.782 2.25374 17.3911C2.00144 18.0001 1.93543 18.6704 2.06405 19.317C2.19267 19.9636 2.51014 20.5575 2.97631 21.0237C3.44249 21.4899 4.03643 21.8073 4.68303 21.936C5.32964 22.0646 5.99986 21.9986 6.60895 21.7463C7.21803 21.494 7.73863 21.0667 8.1049 20.5186C8.47117 19.9704 8.66667 19.3259 8.66667 18.6667V11.0633C8.66664 10.6745 8.80257 10.2979 9.05094 9.99869C9.2993 9.6995 9.64446 9.49656 10.0267 9.42501L19.3458 7.67502C19.4667 7.65226 19.5911 7.65654 19.7102 7.68756C19.8292 7.71859 19.9399 7.77557 20.0343 7.85444C20.1287 7.93331 20.2045 8.03209 20.2562 8.14371C20.3079 8.25533 20.3342 8.37701 20.3333 8.50002V13.3C19.8292 12.9989 19.2539 12.8378 18.6667 12.8333C18.0074 12.8333 17.3629 13.0288 16.8148 13.3951C16.2666 13.7614 15.8394 14.282 15.5871 14.8911C15.3348 15.5001 15.2688 16.1704 15.3974 16.817C15.526 17.4636 15.8435 18.0575 16.3096 18.5237C16.7758 18.9899 17.3698 19.3073 18.0164 19.436C18.663 19.5646 19.3332 19.4986 19.9423 19.2463C20.5514 18.994 21.072 18.5667 21.4382 18.0186C21.8045 17.4704 22 16.8259 22 16.1667V5.33335C22.0006 4.84355 21.8928 4.35968 21.6845 3.91639C21.4762 3.4731 21.1724 3.08135 20.795 2.76919ZM5.33333 20.3333C5.0037 20.3333 4.68147 20.2356 4.40738 20.0525C4.1333 19.8693 3.91968 19.609 3.79354 19.3045C3.66739 18.9999 3.63438 18.6648 3.69869 18.3415C3.763 18.0182 3.92174 17.7212 4.15482 17.4882C4.38791 17.2551 4.68488 17.0963 5.00818 17.032C5.33149 16.9677 5.6666 17.0007 5.97114 17.1269C6.27568 17.253 6.53598 17.4666 6.71912 17.7407C6.90225 18.0148 7 18.337 7 18.6667C7 19.1087 6.82441 19.5326 6.51185 19.8452C6.19929 20.1577 5.77536 20.3333 5.33333 20.3333ZM19.0392 6.04002L9.71917 7.78668C9.3486 7.85729 8.99272 7.99029 8.66667 8.18002V7.58835C8.66659 7.0052 8.87037 6.44037 9.24275 5.9916C9.61513 5.54282 10.1327 5.23835 10.7058 5.13085L18.36 3.69586C18.6006 3.65081 18.8482 3.65933 19.0851 3.72079C19.3221 3.78225 19.5426 3.89516 19.731 4.05148C19.9194 4.2078 20.071 4.4037 20.1751 4.62525C20.2792 4.8468 20.3332 5.08856 20.3333 5.33335V6.15335C19.9199 6.00041 19.4729 5.96127 19.0392 6.04002ZM18.6667 17.8333C18.337 17.8333 18.0148 17.7356 17.7407 17.5525C17.4666 17.3693 17.253 17.109 17.1269 16.8045C17.0007 16.4999 16.9677 16.1648 17.032 15.8415C17.0963 15.5182 17.2551 15.2213 17.4882 14.9882C17.7212 14.7551 18.0182 14.5963 18.3415 14.532C18.6648 14.4677 18.9999 14.5007 19.3045 14.6269C19.609 14.753 19.8693 14.9666 20.0524 15.2407C20.2356 15.5148 20.3333 15.837 20.3333 16.1667C20.3333 16.6087 20.1577 17.0326 19.8452 17.3452C19.5326 17.6577 19.1087 17.8333 18.6667 17.8333Z" fill="#030712"/>
</svg>
